<svg width="150" height="150" viewBox="0 0 150 150" fill="none" xmlns="http://www.w3.org/2000/svg">
<path d="M134.136 45.2539C133.267 44.3788 132.233 43.6847 131.094 43.212C129.955 42.7393 128.733 42.4973 127.5 42.5H108.75V37.8125C108.75 29.1101 105.293 20.7641 99.1394 14.6106C92.9859 8.45702 84.6399 5 75.9375 5C67.2351 5 58.8891 8.45702 52.7356 14.6106C46.582 20.7641 43.125 29.1101 43.125 37.8125V42.5H24.375C21.8886 42.5 19.504 43.4877 17.7459 45.2459C15.9877 47.004 15 49.3886 15 51.875V115.156C15 126.582 24.668 136.25 36.0938 136.25H115.781C121.308 136.252 126.616 134.091 130.57 130.229C132.56 128.331 134.145 126.049 135.228 123.521C136.312 120.994 136.872 118.273 136.875 115.522V51.875C136.879 50.6451 136.639 49.4266 136.169 48.2901C135.698 47.1536 135.007 46.1216 134.136 45.2539ZM98.3467 75.8984L72.0967 108.711C71.6656 109.25 71.1209 109.686 70.5016 109.99C69.8822 110.294 69.2035 110.457 68.5137 110.469H68.4375C67.7604 110.469 67.0914 110.322 66.4764 110.039C65.8614 109.756 65.3151 109.343 64.875 108.828L53.625 95.6797C53.2249 95.2118 52.9208 94.6698 52.7302 94.0844C52.5396 93.4991 52.4661 92.882 52.514 92.2682C52.5618 91.6545 52.7301 91.0562 53.0092 90.5075C53.2883 89.9588 53.6728 89.4704 54.1406 89.0703C54.6085 88.6702 55.1505 88.3661 55.7359 88.1755C56.3212 87.9849 56.9384 87.9114 57.5521 87.9593C58.1658 88.0072 58.7641 88.1755 59.3128 88.4546C59.8615 88.7337 60.3499 89.1181 60.75 89.5859L68.3203 98.4307L91.0283 70.0391C91.8053 69.0678 92.9363 68.445 94.1725 68.3076C95.4087 68.1703 96.6489 68.5296 97.6201 69.3066C98.5914 70.0836 99.2142 71.2147 99.3515 72.4509C99.4889 73.6871 99.1295 74.9272 98.3525 75.8984H98.3467ZM99.375 42.5H52.5V37.8125C52.5 31.5965 54.9693 25.6351 59.3647 21.2397C63.7601 16.8443 69.7215 14.375 75.9375 14.375C82.1535 14.375 88.1149 16.8443 92.5103 21.2397C96.9057 25.6351 99.375 31.5965 99.375 37.8125V42.5Z" fill="#43971C"/>
</svg>
