<svg width="50" height="50" viewBox="0 0 50 50" fill="none" xmlns="http://www.w3.org/2000/svg">
<path d="M35.9375 18.75H34.375V10.9375C34.375 8.4511 33.3873 6.06653 31.6291 4.30837C29.871 2.55022 27.4864 1.5625 25 1.5625C22.5136 1.5625 20.129 2.55022 18.3709 4.30837C16.6127 6.06653 15.625 8.4511 15.625 10.9375V18.75H14.0625C12.4055 18.7518 10.8168 19.4109 9.64508 20.5826C8.47337 21.7543 7.81431 23.343 7.8125 25V42.1875C7.81431 43.8445 8.47337 45.4332 9.64508 46.6049C10.8168 47.7766 12.4055 48.4357 14.0625 48.4375H35.9375C37.5945 48.4357 39.1832 47.7766 40.3549 46.6049C41.5266 45.4332 42.1857 43.8445 42.1875 42.1875V25C42.1857 23.343 41.5266 21.7543 40.3549 20.5826C39.1832 19.4109 37.5945 18.7518 35.9375 18.75ZM31.25 18.75H18.75V10.9375C18.75 9.2799 19.4085 7.69018 20.5806 6.51808C21.7527 5.34598 23.3424 4.6875 25 4.6875C26.6576 4.6875 28.2473 5.34598 29.4194 6.51808C30.5915 7.69018 31.25 9.2799 31.25 10.9375V18.75Z" fill="black"/>
</svg>
