<svg width="30" height="20" viewBox="0 0 30 20" fill="none" xmlns="http://www.w3.org/2000/svg">
<rect x="1.32292" y="1.32292" width="26.5208" height="17.3542" rx="8.67708" fill="white" stroke="#D9D9D9" stroke-width="2.64583"/>
<path fill-rule="evenodd" clip-rule="evenodd" d="M8.24994 12.7007H6.9536C6.86489 12.7007 6.78944 12.7652 6.77561 12.8527L6.2513 16.1769C6.24088 16.2425 6.29168 16.3017 6.35821 16.3017H6.9771C7.06581 16.3017 7.14126 16.2372 7.15509 16.1495L7.2965 15.2529C7.31014 15.1651 7.38578 15.1007 7.4743 15.1007H7.88468C8.73863 15.1007 9.23144 14.6874 9.36021 13.8686C9.41819 13.5103 9.36267 13.2288 9.19486 13.0316C9.01065 12.8152 8.6838 12.7007 8.24994 12.7007ZM8.39951 13.9148C8.32863 14.38 7.97321 14.38 7.62955 14.38H7.43392L7.57116 13.5112C7.57931 13.4588 7.6248 13.4201 7.67788 13.4201H7.76754C8.00164 13.4201 8.22249 13.4201 8.33661 13.5535C8.40459 13.6331 8.42547 13.7514 8.39951 13.9148ZM12.125 13.8999H11.5043C11.4514 13.8999 11.4057 13.9386 11.3975 13.9911L11.37 14.1647L11.3266 14.1018C11.1922 13.9067 10.8926 13.8416 10.5935 13.8416C9.9074 13.8416 9.32153 14.3611 9.2074 15.09C9.1481 15.4535 9.2324 15.8011 9.43863 16.0436C9.62784 16.2665 9.89854 16.3594 10.2206 16.3594C10.7733 16.3594 11.0799 16.0039 11.0799 16.0039L11.0521 16.1765C11.0417 16.2424 11.0925 16.3016 11.1586 16.3016H11.7178C11.8068 16.3016 11.8818 16.2371 11.8958 16.1494L12.2314 14.0246C12.242 13.9593 12.1914 13.8999 12.125 13.8999ZM11.2597 15.1081C11.1998 15.4628 10.9183 15.7009 10.5593 15.7009C10.3791 15.7009 10.2349 15.6431 10.1425 15.5335C10.0507 15.4247 10.0158 15.2698 10.045 15.0974C10.101 14.7457 10.3872 14.4999 10.7407 14.4999C10.917 14.4999 11.0603 14.5584 11.1547 14.6689C11.2493 14.7806 11.2868 14.9364 11.2597 15.1081ZM14.8074 13.8998H15.4313C15.5186 13.8998 15.5696 13.9978 15.52 14.0695L13.4451 17.0644C13.4115 17.1129 13.3562 17.1417 13.2971 17.1417H12.674C12.5863 17.1417 12.535 17.043 12.5858 16.9711L13.2319 16.0592L12.5448 14.0427C12.521 13.9726 12.5728 13.8998 12.6473 13.8998H13.2603C13.34 13.8998 13.4102 13.9521 13.4332 14.0283L13.7979 15.2462L14.6583 13.9788C14.692 13.9294 14.7479 13.8998 14.8074 13.8998Z" fill="#253B80"/>
<path fill-rule="evenodd" clip-rule="evenodd" d="M21.5712 16.1771L22.1032 12.7921C22.1114 12.7395 22.1569 12.7009 22.2098 12.7007H22.8087C22.8749 12.7007 22.9257 12.76 22.9152 12.8256L22.3906 16.1496C22.3769 16.2374 22.3014 16.3018 22.2126 16.3018H21.6777C21.6115 16.3018 21.5607 16.2427 21.5712 16.1771ZM17.4967 12.7009H16.2001C16.1116 12.7009 16.0362 12.7653 16.0223 12.8529L15.498 16.1771C15.4876 16.2427 15.5384 16.3018 15.6046 16.3018H16.2699C16.3317 16.3018 16.3846 16.2567 16.3942 16.1953L16.543 15.2531C16.5567 15.1653 16.6323 15.1009 16.7208 15.1009H17.131C17.9851 15.1009 18.4778 14.6876 18.6067 13.8688C18.6649 13.5105 18.609 13.229 18.4413 13.0318C18.2571 12.8154 17.9306 12.7009 17.4967 12.7009ZM17.6463 13.915C17.5756 14.3802 17.2201 14.3802 16.8763 14.3802H16.6808L16.8183 13.5114C16.8264 13.4589 16.8715 13.4202 16.9248 13.4202H17.0144C17.2484 13.4202 17.4694 13.4202 17.5835 13.5537C17.6515 13.6333 17.6722 13.7516 17.6463 13.915ZM21.3714 13.9001H20.7511C20.6978 13.9001 20.6525 13.9388 20.6445 13.9913L20.6171 14.1649L20.5735 14.102C20.4391 13.9069 20.1396 13.8417 19.8405 13.8417C19.1544 13.8417 18.5687 14.3613 18.4546 15.0902C18.3955 15.4537 18.4794 15.8013 18.6856 16.0438C18.8752 16.2667 19.1456 16.3596 19.4676 16.3596C20.0203 16.3596 20.3268 16.0041 20.3268 16.0041L20.2992 16.1767C20.2887 16.2426 20.3395 16.3017 20.4061 16.3017H20.965C21.0535 16.3017 21.129 16.2373 21.1428 16.1496L21.4785 14.0248C21.4888 13.9595 21.438 13.9001 21.3714 13.9001ZM20.5062 15.1083C20.4466 15.463 20.1648 15.701 19.8057 15.701C19.6258 15.701 19.4814 15.6432 19.3889 15.5337C19.2971 15.4249 19.2627 15.27 19.2915 15.0975C19.3478 14.7459 19.6336 14.5001 19.9871 14.5001C20.1635 14.5001 20.3067 14.5586 20.4012 14.6691C20.4961 14.7808 20.5336 14.9366 20.5062 15.1083Z" fill="#179BD7"/>
<path d="M13.0474 11.5118L13.2068 10.4995L12.8518 10.4912H11.1566L12.3347 3.02136C12.3383 2.99881 12.3502 2.97779 12.3676 2.96286C12.385 2.94793 12.4072 2.9397 12.4304 2.9397H15.2887C16.2377 2.9397 16.8925 3.13716 17.2344 3.52691C17.3947 3.70975 17.4968 3.90081 17.5462 4.11108C17.5979 4.33171 17.5989 4.5953 17.5483 4.91679L17.5446 4.94025V5.14625L17.705 5.23706C17.84 5.30867 17.9472 5.39064 18.0294 5.4845C18.1666 5.64083 18.2553 5.83951 18.2928 6.07506C18.3315 6.31733 18.3187 6.6056 18.2553 6.93197C18.1822 7.3074 18.0639 7.63438 17.9043 7.90193C17.7573 8.14846 17.5702 8.35289 17.3481 8.51139C17.136 8.66192 16.884 8.77622 16.5991 8.84938C16.3229 8.92122 16.0082 8.95754 15.6629 8.95754H15.4405C15.2815 8.95754 15.1269 9.01482 15.0057 9.11754C14.8841 9.22236 14.8036 9.36552 14.7789 9.52219L14.7622 9.61333L14.4806 11.3975L14.4678 11.463C14.4644 11.4838 14.4586 11.4941 14.4501 11.5011C14.4425 11.5075 14.4315 11.5118 14.4208 11.5118H13.0474Z" fill="#253B80"/>
<path d="M17.8568 4.96411C17.8483 5.01866 17.8386 5.07442 17.8276 5.13171C17.4506 7.06705 16.161 7.73564 14.5139 7.73564H13.6753C13.4739 7.73564 13.3042 7.8819 13.2728 8.08058L12.8434 10.8037L12.7218 11.5755C12.7014 11.706 12.802 11.8236 12.9336 11.8236H14.421C14.5972 11.8236 14.7467 11.6956 14.7745 11.5219L14.7891 11.4463L15.0692 9.66912L15.0872 9.57167C15.1145 9.39737 15.2645 9.26938 15.4406 9.26938H15.6631C17.1041 9.26938 18.2323 8.68429 18.562 6.99118C18.6997 6.28389 18.6284 5.69333 18.2639 5.27798C18.1537 5.15273 18.0168 5.04882 17.8568 4.96411Z" fill="#179BD7"/>
<path d="M17.4623 4.80693C17.4048 4.79017 17.3453 4.77493 17.2843 4.76122C17.2231 4.74782 17.1603 4.73593 17.0958 4.72557C16.8696 4.689 16.6219 4.67163 16.3565 4.67163H14.1161C14.0609 4.67163 14.0085 4.68412 13.9616 4.70667C13.8583 4.75634 13.7815 4.85417 13.7629 4.97392L13.2863 7.99259L13.2726 8.08065C13.304 7.88196 13.4737 7.73569 13.6751 7.73569H14.5137C16.1608 7.73569 17.4505 7.06681 17.8274 5.13177C17.8386 5.07448 17.8481 5.01872 17.8566 4.96418C17.7613 4.91359 17.6579 4.87032 17.5467 4.83344C17.5193 4.8243 17.491 4.81546 17.4623 4.80693Z" fill="#222D65"/>
<path d="M13.763 4.97381C13.7816 4.85404 13.8584 4.75623 13.9616 4.70686C14.0089 4.6843 14.061 4.67181 14.1161 4.67181H16.3566C16.622 4.67181 16.8697 4.68918 17.0958 4.72575C17.1604 4.73611 17.2232 4.748 17.2845 4.7614C17.3454 4.77512 17.4048 4.79036 17.4624 4.80711C17.491 4.81565 17.5194 4.82448 17.5471 4.83332C17.6583 4.87019 17.7616 4.91377 17.857 4.96405C17.9692 4.24885 17.8561 3.76189 17.4695 3.32094C17.0431 2.83551 16.2737 2.62769 15.2891 2.62769H12.4307C12.2295 2.62769 12.058 2.77395 12.0269 2.97294L10.8364 10.5196C10.8129 10.6689 10.928 10.8036 11.0786 10.8036H12.8433L13.2864 7.99246L13.763 4.97381Z" fill="#253B80"/>
</svg>
