<svg width="7" height="7" viewBox="0 0 7 7" fill="none" xmlns="http://www.w3.org/2000/svg">
<g clip-path="url(#clip0_302_956)">
<path d="M5.38663 6.56271C5.34059 6.56289 5.29566 6.54853 5.25825 6.52169L3.49991 5.24693L1.74157 6.52169C1.70401 6.54894 1.65875 6.56353 1.61234 6.56336C1.56594 6.5632 1.52079 6.54827 1.48342 6.52075C1.44605 6.49324 1.41841 6.45455 1.40448 6.41028C1.39055 6.36601 1.39106 6.31846 1.40593 6.27451L2.09171 4.24328L0.314367 3.02443C0.275868 2.99806 0.246812 2.96006 0.231443 2.916C0.216074 2.87194 0.215198 2.82412 0.228943 2.77953C0.242687 2.73493 0.270333 2.6959 0.30784 2.66814C0.345347 2.64037 0.390749 2.62533 0.437413 2.62521H2.63011L3.29183 0.588783C3.30608 0.544817 3.3339 0.506496 3.37128 0.479318C3.40866 0.452139 3.45369 0.4375 3.49991 0.4375C3.54613 0.4375 3.59116 0.452139 3.62855 0.479318C3.66593 0.506496 3.69374 0.544817 3.708 0.588783L4.36972 2.62589H6.56241C6.60914 2.62587 6.65464 2.64081 6.69226 2.66852C6.72988 2.69623 6.75763 2.73526 6.77147 2.77988C6.7853 2.82451 6.78448 2.8724 6.76912 2.91653C6.75377 2.96065 6.72469 2.99871 6.68614 3.02511L4.90812 4.24328L5.59349 6.27396C5.60459 6.30684 5.60772 6.34188 5.6026 6.37621C5.59749 6.41053 5.58428 6.44314 5.56407 6.47135C5.54386 6.49956 5.51723 6.52256 5.48638 6.53844C5.45552 6.55433 5.42133 6.56265 5.38663 6.56271Z" fill="black"/>
</g>
<defs>
<clipPath id="clip0_302_956">
<rect width="7" height="7" fill="white"/>
</clipPath>
</defs>
</svg>
