<svg width="70" height="70" viewBox="0 0 70 70" fill="none" xmlns="http://www.w3.org/2000/svg">
<path d="M43.75 62.6391C43.75 62.6391 41.5625 63.4375 35 63.4375C28.4375 63.4375 24.8828 61.25 21.875 59.0625H13.125C10.8044 59.0625 8.57876 58.1406 6.93782 56.4997C5.29687 54.8587 4.375 52.6331 4.375 50.3125V43.75C4.375 41.4294 5.29687 39.2038 6.93782 37.5628C8.57876 35.9219 10.8044 35 13.125 35H17.2266C17.9778 34.9958 18.7156 34.8004 19.3703 34.432C20.025 34.0636 20.5751 33.5345 20.9686 32.8945C20.9686 32.8945 22.1484 30.3256 25.7031 24.1691C29.2578 18.0127 36.0938 8.75 37.1875 6.5625C41.1523 6.5625 43.0664 9.57031 41.8359 13.0854C40.4305 17.1035 38.5943 20.5201 38.0816 24.9922C38.0078 25.6457 38.5109 26.6328 39.1686 26.6328L56.875 28.0273" stroke="#793820" stroke-width="5" stroke-linecap="round" stroke-linejoin="round"/>
<path d="M56.875 37.0508L45.9375 36.7773C43.2031 36.5258 41.5625 35.082 41.5625 32.6758C41.5625 30.2695 43.4766 28.7328 45.9375 28.5742L56.875 28.0273C59.2813 28.0273 61.25 30.2695 61.25 32.6758V32.699C61.2439 33.8553 60.7802 34.9621 59.9604 35.7776C59.1406 36.5931 58.0313 37.0508 56.875 37.0508ZM61.25 45.9375L45.9375 45.6641C43.4766 45.5492 41.5625 43.9674 41.5625 41.5625C41.5625 39.1549 43.4766 37.6168 45.9375 37.4609L61.25 37.1875C62.4092 37.1911 63.5199 37.6532 64.3396 38.4729C65.1593 39.2926 65.6214 40.4033 65.625 41.5625V41.5625C65.6214 42.7217 65.1593 43.8324 64.3396 44.6521C63.5199 45.4718 62.4092 45.9339 61.25 45.9375V45.9375ZM54.6875 63.4375L45.9375 63.0273C43.0664 62.7758 41.5625 61.4688 41.5625 59.0625C41.5625 56.6562 43.5312 54.9609 45.9375 54.9609L54.6875 54.6875C55.8468 54.6907 56.9577 55.1527 57.7775 55.9725C58.5973 56.7923 59.0593 57.9032 59.0625 59.0625V59.0625C59.0593 60.2218 58.5973 61.3327 57.7775 62.1525C56.9577 62.9723 55.8468 63.4343 54.6875 63.4375V63.4375ZM59.0625 54.6875L45.9375 54.4141C43.3398 54.2992 41.5625 52.7188 41.5625 50.3125C41.5625 47.9062 43.3398 46.3695 45.9375 46.2109L59.0625 45.9375C60.2218 45.9407 61.3327 46.4027 62.1525 47.2225C62.9723 48.0423 63.4343 49.1532 63.4375 50.3125V50.3125C63.4343 51.4718 62.9723 52.5827 62.1525 53.4025C61.3327 54.2223 60.2218 54.6843 59.0625 54.6875Z" stroke="#793820" stroke-width="5" stroke-miterlimit="10"/>
</svg>
