<svg width="30" height="20" viewBox="0 0 30 20" fill="none" xmlns="http://www.w3.org/2000/svg">
<rect x="1.32292" y="1.32292" width="26.5208" height="17.3542" rx="8.67708" fill="white" stroke="#D9D9D9" stroke-width="2.64583"/>
<path fill-rule="evenodd" clip-rule="evenodd" d="M8.85432 13.5489H7.08739L5.7624 8.49405C5.69951 8.26152 5.56598 8.05596 5.36956 7.95907C4.87936 7.71559 4.3392 7.52182 3.74994 7.4241V7.22948H6.59633C6.98918 7.22948 7.28381 7.52182 7.33291 7.86134L8.02039 11.5076L9.78646 7.22948H11.5043L8.85432 13.5489ZM12.4864 13.5489H10.8177L12.1918 7.22948H13.8605L12.4864 13.5489ZM16.0194 8.97992C16.0685 8.63956 16.3632 8.44495 16.7069 8.44495C17.2471 8.39608 17.8355 8.49381 18.3265 8.73645L18.6212 7.37584C18.1301 7.18122 17.5899 7.0835 17.0997 7.0835C15.4801 7.0835 14.3016 7.95884 14.3016 9.1737C14.3016 10.0979 15.1364 10.5832 15.7257 10.8755C16.3632 11.167 16.6087 11.3616 16.5596 11.6531C16.5596 12.0904 16.0685 12.285 15.5783 12.285C14.9891 12.285 14.3998 12.1392 13.8605 11.8958L13.5659 13.2572C14.1551 13.4998 14.7927 13.5976 15.3819 13.5976C17.198 13.6456 18.3265 12.7711 18.3265 11.4585C18.3265 9.80556 16.0194 9.70867 16.0194 8.97992V8.97992ZM24.1667 13.5489L22.8417 7.22948H21.4185C21.1239 7.22948 20.8292 7.4241 20.731 7.71559L18.2775 13.5489H19.9953L20.3382 12.6256H22.4489L22.6453 13.5489H24.1667ZM21.664 8.93093L22.1542 11.3126H20.7801L21.664 8.93093Z" fill="#172B85"/>
</svg>
