<svg width="70" height="70" viewBox="0 0 70 70" fill="none" xmlns="http://www.w3.org/2000/svg">
<path d="M34.9534 15.3125C24.2975 15.3125 13.3669 21.4799 4.7618 33.8146C4.51618 34.1706 4.38158 34.5914 4.37501 35.0238C4.36844 35.4562 4.49019 35.8809 4.72489 36.2441C11.3366 46.5938 22.121 54.6875 34.9534 54.6875C47.6464 54.6875 58.6522 46.5691 65.2763 36.1963C65.5055 35.8402 65.6273 35.4256 65.6273 35.0021C65.6273 34.5785 65.5055 34.164 65.2763 33.8078C58.6372 23.5539 47.5507 15.3125 34.9534 15.3125Z" stroke="#793820" stroke-width="5" stroke-linecap="round" stroke-linejoin="round"/>
<path d="M35 45.9375C41.0406 45.9375 45.9375 41.0406 45.9375 35C45.9375 28.9594 41.0406 24.0625 35 24.0625C28.9594 24.0625 24.0625 28.9594 24.0625 35C24.0625 41.0406 28.9594 45.9375 35 45.9375Z" stroke="#793820" stroke-width="5" stroke-miterlimit="10"/>
</svg>
