<svg width="40" height="32" viewBox="0 0 40 32" fill="none" xmlns="http://www.w3.org/2000/svg">
<path d="M0.000171661 21.4275C0.000171661 17.0791 0.786028 14.512 3.35315 10.347C5.99886 6.10334 11.1855 1.93831 14.9576 -0.000127792L16.1626 2.33124C12.9144 4.63641 10.8188 6.44388 8.5136 10.8709C7.85872 12.1282 7.49199 13.2284 7.28243 14.2238C7.78013 14.1191 8.33023 14.0667 8.88033 14.0667C13.6478 14.0667 17.4985 17.9436 17.4985 22.7111C17.4985 27.4786 13.6478 31.3555 8.88033 31.3555C4.92486 31.3555 1.57188 28.6836 0.576468 25.0162C0.209736 23.9684 0.000171661 22.7897 0.000171661 21.4275Z" fill="white"/>
<path d="M22.5016 21.4275C22.5016 17.0791 23.2875 14.512 25.8546 10.347C28.5003 6.10334 33.687 1.93831 37.4591 -0.000127792L38.664 2.33124C35.4158 4.63641 33.3202 6.44388 31.0151 10.8709C30.3602 12.1282 29.9935 13.2284 29.7839 14.2238C30.2816 14.1191 30.8317 14.0667 31.3818 14.0667C36.1493 14.0667 40 17.9436 40 22.7111C40 27.4786 36.1493 31.3555 31.3818 31.3555C27.4263 31.3555 24.0733 28.6836 23.0779 25.0162C22.7112 23.9684 22.5016 22.7897 22.5016 21.4275Z" fill="white"/>
</svg>
