<svg width="30" height="20" viewBox="0 0 30 20" fill="none" xmlns="http://www.w3.org/2000/svg">
<rect x="1.32292" y="1.32292" width="26.5208" height="17.3542" rx="8.67708" fill="white" stroke="#D9D9D9" stroke-width="2.64583"/>
<path fill-rule="evenodd" clip-rule="evenodd" d="M18.4801 15.6715C21.6207 15.6715 24.1666 13.096 24.1666 9.91899C24.1666 6.74198 21.6207 4.1665 18.4801 4.1665C17.0726 4.1665 15.7846 4.6838 14.7916 5.5407C13.7986 4.68385 12.5106 4.1666 11.1032 4.1666C7.96261 4.1666 5.41669 6.74207 5.41669 9.91908C5.41669 13.0961 7.96261 15.6716 11.1032 15.6716C12.5107 15.6716 13.7987 15.1543 14.7917 14.2974C15.7846 15.1542 17.0727 15.6715 18.4801 15.6715Z" fill="#ED0006"/>
<path fill-rule="evenodd" clip-rule="evenodd" d="M14.7917 14.2972C16.0144 13.2421 16.7897 11.6722 16.7897 9.91899C16.7897 8.16583 16.0144 6.59585 14.7917 5.54073C15.7847 4.68381 17.0728 4.1665 18.4803 4.1665C21.6209 4.1665 24.1668 6.74198 24.1668 9.91899C24.1668 13.096 21.6209 15.6715 18.4803 15.6715C17.0728 15.6715 15.7847 15.1542 14.7917 14.2972Z" fill="#F9A000"/>
<path fill-rule="evenodd" clip-rule="evenodd" d="M14.7917 14.2973C16.0144 13.2422 16.7896 11.6722 16.7896 9.91903C16.7896 8.16587 16.0144 6.59588 14.7917 5.54077C13.5691 6.59588 12.7938 8.16587 12.7938 9.91903C12.7938 11.6722 13.5691 13.2422 14.7917 14.2973Z" fill="#FF5E00"/>
</svg>
