<svg width="30" height="20" viewBox="0 0 30 20" fill="none" xmlns="http://www.w3.org/2000/svg">
<rect x="0.5" y="0.5" width="28.1667" height="19" rx="5.5" fill="white" stroke="#D9D9D9"/>
<path fill-rule="evenodd" clip-rule="evenodd" d="M3.37624 11.8109L3.37624 11.8109L3.37625 11.8109C3.39742 11.6906 3.41793 11.574 3.44152 11.4574C3.54139 10.9301 3.64196 10.4034 3.74253 9.8768L3.74254 9.87677L3.74255 9.87671C3.84312 9.35008 3.94369 8.82344 4.04356 8.29611C4.05744 8.22933 4.07686 8.1848 4.14344 8.17367C4.66226 8.09575 5.18385 8.04009 5.70266 8.17089C6.15489 8.2822 6.47118 8.60223 6.52389 8.97791C6.63209 9.72649 6.19651 10.3248 5.55007 10.5391C5.20882 10.6504 4.86202 10.6782 4.50967 10.6448C4.42643 10.6365 4.40146 10.6587 4.38759 10.7394C4.31268 11.1485 4.235 11.5548 4.15454 11.9611C4.14899 11.9945 4.11847 12.0474 4.09905 12.0474C3.9105 12.0515 3.72504 12.051 3.53228 12.0505C3.46693 12.0503 3.40074 12.0501 3.33331 12.0501C3.34857 11.9682 3.36255 11.8887 3.37624 11.8109L3.37624 11.8109ZM4.68425 9.98533L4.68427 9.98533C4.79279 9.98829 4.89527 9.99107 4.99518 9.97973C5.28372 9.94912 5.514 9.81832 5.6444 9.54282C5.79144 9.23115 5.68601 8.89999 5.40857 8.80259C5.21159 8.73302 5.00906 8.74693 4.80652 8.77476C4.78155 8.77755 4.74826 8.81651 4.74271 8.84155C4.70392 9.04542 4.66513 9.25016 4.62489 9.46259L4.62483 9.4629L4.62483 9.46291L4.52631 9.98251C4.58054 9.98251 4.63306 9.98394 4.68424 9.98533H4.68424H4.68425H4.68425H4.68425ZM8.25235 11.5158C8.20845 11.5616 8.16733 11.6077 8.12714 11.6527C8.04034 11.75 7.95788 11.8424 7.86116 11.9166C7.56985 12.142 7.23692 12.1921 6.90121 12.0362C6.56828 11.8832 6.43234 11.5854 6.41846 11.2348C6.38794 10.4973 6.64597 9.88788 7.26466 9.46489C7.65308 9.19774 8.09976 9.11704 8.56309 9.14209C8.71635 9.15113 8.86844 9.1778 9.02088 9.20454L9.02089 9.20454C9.10301 9.21894 9.18523 9.23336 9.26779 9.24505C9.36212 9.25897 9.37599 9.31184 9.35934 9.39254C9.33708 9.50892 9.31456 9.62518 9.29206 9.74137L9.29206 9.74138L9.29205 9.74139L9.29205 9.7414L9.29205 9.7414L9.29205 9.74141C9.20802 10.1753 9.12419 10.6082 9.05416 11.0428C9.014 11.2916 8.99798 11.5464 8.98211 11.7987L8.9737 11.9305C8.96815 12.0195 8.94596 12.0557 8.8544 12.0529C8.68239 12.0474 8.51037 12.0474 8.33836 12.0529C8.24958 12.0557 8.21906 12.0223 8.22738 11.936C8.2353 11.8407 8.24039 11.7426 8.24568 11.6406L8.24569 11.6406L8.24569 11.6406L8.24569 11.6405L8.24569 11.6405L8.24569 11.6405L8.2457 11.6404L8.2457 11.6403L8.24575 11.6394C8.24786 11.5988 8.24999 11.5577 8.25235 11.5158ZM8.44657 9.79605C8.17745 9.72091 7.95272 9.77379 7.76406 9.93241C7.40894 10.233 7.24802 10.6225 7.27854 11.0873C7.28686 11.2292 7.34235 11.3656 7.49217 11.4268C7.64199 11.488 7.77793 11.4435 7.89446 11.3433C7.96382 11.2821 8.0304 11.2125 8.08034 11.1346C8.27603 10.835 8.32949 10.4971 8.38379 10.1538C8.40262 10.0347 8.42156 9.91502 8.44657 9.79605ZM12.3779 11.3544C12.5305 11.8442 12.9494 12.1169 13.6847 12.1169C14.1896 12.103 14.6918 11.8164 15.0053 11.2264C15.1718 10.9092 15.2328 10.5697 15.2106 10.2135C15.1912 9.87119 15.0552 9.58177 14.7778 9.37585C14.4865 9.15878 14.1535 9.11426 13.7984 9.15322C12.611 9.28679 12.1254 10.5474 12.3779 11.3544ZM13.168 10.9458V10.9457V10.9457V10.9456V10.9456C13.1683 10.9314 13.1686 10.9174 13.1686 10.9036C13.1769 10.5836 13.2546 10.2858 13.4461 10.0215C13.5321 9.90458 13.6403 9.81553 13.7845 9.78214C14.0786 9.71535 14.32 9.8851 14.3477 10.2051C14.381 10.5975 14.2867 10.9593 14.0398 11.2737C13.9455 11.3906 13.8262 11.4713 13.6736 11.4852C13.3989 11.5103 13.1908 11.3238 13.1686 11.0316C13.1668 11.0037 13.1674 10.9746 13.168 10.9458V10.9458V10.9458V10.9458V10.9458ZM15.8709 9.21166H16.5756C16.5645 9.36193 16.5534 9.50664 16.5395 9.65413C16.5652 9.63012 16.5901 9.60641 16.6145 9.58315C16.6664 9.53362 16.7161 9.48619 16.767 9.44263C17.0417 9.20331 17.3552 9.09756 17.7187 9.156C18.0183 9.20609 18.2264 9.42593 18.2597 9.73483C18.2959 10.0562 18.2358 10.368 18.1758 10.6791L18.1626 10.7478C18.1383 10.8741 18.1142 11.0005 18.0902 11.1268L18.0901 11.1269L18.0901 11.127C18.0374 11.4039 17.9848 11.6804 17.9295 11.9555C17.9212 11.9917 17.8796 12.0446 17.8518 12.0474C17.6132 12.0529 17.3746 12.0501 17.136 12.0474C17.128 12.0474 17.12 12.043 17.1079 12.0364L17.1079 12.0364C17.1032 12.0339 17.0979 12.031 17.0917 12.0279C17.136 11.7969 17.1804 11.5631 17.2221 11.3294C17.2859 10.9704 17.3469 10.6142 17.4024 10.2552C17.4135 10.194 17.4079 10.13 17.3996 10.0688C17.3774 9.85449 17.2193 9.75709 17.014 9.8211C16.8142 9.8851 16.6949 10.0409 16.5978 10.2135C16.4535 10.4667 16.4036 10.7478 16.3537 11.0288L16.3164 11.2375L16.3164 11.2376L16.3164 11.2376L16.3164 11.2377C16.2739 11.4761 16.2317 11.7136 16.1844 11.9527C16.1761 11.9889 16.1345 12.0446 16.1067 12.0474C15.9122 12.054 15.7159 12.0536 15.5066 12.0532L15.3438 12.0529C15.5269 11.0956 15.6989 10.1578 15.8709 9.21166ZM19.8716 11.4685C19.5775 11.4324 19.3805 11.2264 19.4 10.937C19.4613 10.937 19.5223 10.938 19.5831 10.9389C19.7036 10.9407 19.8229 10.9426 19.941 10.937C20.2267 10.9203 20.5069 10.873 20.7677 10.7422C21.1007 10.5752 21.256 10.2997 21.2311 9.94076C21.2061 9.57621 21.0091 9.31184 20.6568 9.2061C20.1296 9.04747 19.6441 9.15879 19.2307 9.51221C18.7285 9.94076 18.5399 10.5085 18.612 11.1569C18.662 11.616 18.9117 11.9444 19.3667 12.0613C19.855 12.1865 20.3349 12.1197 20.7983 11.9305C20.8316 11.9166 20.8704 11.8637 20.8676 11.8303C20.861 11.6945 20.8472 11.5587 20.8334 11.423L20.8232 11.321C20.8141 11.321 20.8073 11.3206 20.8021 11.3202C20.7947 11.3197 20.7904 11.3194 20.7872 11.321L20.7871 11.3211C20.7566 11.3322 20.7261 11.3433 20.6984 11.3544C20.432 11.4574 20.1574 11.5019 19.8716 11.4685ZM20.3016 10.2357C20.1324 10.3248 19.694 10.3777 19.4804 10.3331C19.5248 9.96303 19.916 9.67361 20.2461 9.75431C20.3571 9.78214 20.4376 9.84058 20.457 9.96024C20.4764 10.0771 20.4181 10.1745 20.3016 10.2357ZM22.1716 10.9481C22.1466 11.2209 22.3408 11.4296 22.6377 11.4685C22.9151 11.5019 23.1815 11.4602 23.4423 11.3656C23.4663 11.3565 23.4895 11.3475 23.5149 11.3376L23.515 11.3376C23.5366 11.3292 23.5598 11.3201 23.5866 11.3099C23.592 11.3689 23.598 11.4267 23.6039 11.4836C23.6162 11.6015 23.6281 11.7159 23.6337 11.8303C23.6365 11.8637 23.5977 11.9166 23.5671 11.9305C23.0955 12.1253 22.61 12.1921 22.1133 12.0557C21.6667 11.9333 21.4336 11.6077 21.3781 11.1624C21.3088 10.5919 21.4558 10.0771 21.8525 9.65413C22.2798 9.20053 22.8042 9.03912 23.409 9.20609C23.778 9.30906 23.975 9.57621 23.9972 9.95189C24.0194 10.3192 23.8529 10.5947 23.5061 10.7561C23.1565 10.9175 22.7848 10.9426 22.4074 10.9509C22.3325 10.9481 22.2548 10.9481 22.1716 10.9481ZM22.2521 10.3554C22.3025 10.3522 22.3521 10.3497 22.401 10.3473C22.524 10.3411 22.6426 10.3352 22.7598 10.3192C22.8708 10.3053 22.9817 10.2719 23.0816 10.2246C23.1898 10.1773 23.2425 10.0771 23.2259 9.95467C23.2092 9.83779 23.1316 9.78213 23.0234 9.75431C22.696 9.66526 22.2881 9.9658 22.2521 10.3554ZM24.1497 11.4685C24.1137 11.6578 24.0804 11.8442 24.0443 12.0501C24.0999 12.0501 24.1546 12.0503 24.2088 12.0504C24.4222 12.0508 24.6259 12.0512 24.8295 12.0446C24.8489 12.0446 24.8794 11.9917 24.885 11.9583C24.9133 11.8193 24.9395 11.6796 24.9657 11.54C25.0141 11.2826 25.0624 11.0254 25.1236 10.7728C25.2595 10.2107 25.4898 10.0159 26.0363 9.94354C26.0585 9.94076 26.0946 9.91571 26.1002 9.89623C26.135 9.73629 26.1662 9.57513 26.1985 9.40794C26.2152 9.32206 26.2321 9.23459 26.25 9.14487C25.7228 9.08921 25.4287 9.39533 25.1735 9.77101L25.1776 9.71702C25.1901 9.55076 25.2029 9.38156 25.2179 9.20331C25.1602 9.20331 25.1036 9.20313 25.0478 9.20296C24.8835 9.20244 24.7261 9.20194 24.5687 9.20609C24.5465 9.20888 24.5049 9.25897 24.5021 9.28958C24.4429 10.0048 24.3028 10.7043 24.1628 11.4034L24.1497 11.4685Z" fill="black"/>
<path fill-rule="evenodd" clip-rule="evenodd" d="M16.8041 5.85438C16.776 5.84695 16.748 5.83951 16.7199 5.83325C16.6339 5.83325 16.5478 5.83325 16.4563 5.83603C16.425 5.84231 16.3937 5.84915 16.3622 5.85604C16.3238 5.86444 16.285 5.87292 16.2454 5.88056C15.821 5.96126 15.4214 6.10875 15.0358 6.30355C14.2007 6.72654 13.4516 7.27476 12.7802 7.92316C12.3335 8.35171 11.9007 8.79975 11.4818 9.25891C10.7465 10.0659 10.1168 10.9537 9.61458 11.9276C9.35656 12.4313 9.12351 12.9462 9.01808 13.5055C8.99866 13.6085 9.03195 13.7281 9.06525 13.8311C9.07912 13.8728 9.1568 13.9035 9.20952 13.9202C9.22339 13.9257 9.265 13.8561 9.28443 13.8172C9.29132 13.8021 9.29838 13.7866 9.3056 13.7708C9.42609 13.5069 9.58902 13.1499 9.73037 12.9136C10.03 12.4127 10.2666 12.025 10.6023 11.5492C11.1405 10.7839 11.7694 10.033 12.4297 9.37073C13.054 8.7446 13.6791 8.18474 14.4643 7.76175C14.8249 7.56974 15.1939 7.3805 15.5713 7.22467C16.2232 6.95473 16.903 6.77107 17.6021 6.6681C17.677 6.65697 17.7769 6.59853 17.8019 6.53731C17.8241 6.48165 17.7714 6.3759 17.7187 6.32303C17.505 6.10319 17.2553 5.93622 16.9446 5.88613C16.8978 5.87917 16.851 5.86678 16.8041 5.85438ZM10.4525 9.6513C10.5856 9.28953 10.6522 8.91385 10.6605 8.52425C10.6568 8.48251 10.6538 8.44077 10.6507 8.39903C10.6445 8.31554 10.6383 8.23206 10.6272 8.14857C10.5523 7.50296 10.2749 6.95474 9.83377 6.48444C9.78105 6.43157 9.70892 6.38982 9.63678 6.36478C9.56465 6.33695 9.51748 6.37869 9.52303 6.46218C9.52317 6.46394 9.5233 6.46571 9.52344 6.46747C9.52886 6.53819 9.53447 6.61143 9.548 6.68202C9.5675 6.79323 9.58685 6.90456 9.60623 7.01598C9.67509 7.41199 9.74411 7.80896 9.81989 8.20423C9.8948 8.60217 9.97804 8.99733 10.0668 9.38971C10.0973 9.51494 10.1473 9.64017 10.2083 9.75705C10.2555 9.8461 10.3221 9.83775 10.3831 9.75705L10.3831 9.75704C10.4108 9.72365 10.4386 9.69026 10.4525 9.6513Z" fill="#FC461E"/>
</svg>
