<svg width="40" height="32" viewBox="0 0 40 32" fill="none" xmlns="http://www.w3.org/2000/svg">
<path d="M40.0001 9.92796C40.0001 14.2764 39.2142 16.8435 36.6471 21.0085C34.0014 25.2521 28.8147 29.4172 25.0426 31.3556L23.8377 29.0242C27.0859 26.7191 29.1815 24.9116 31.4866 20.4846C32.1415 19.2272 32.5083 18.127 32.7178 17.1316C32.2201 17.2364 31.67 17.2888 31.1199 17.2888C26.3524 17.2888 22.5017 13.4119 22.5017 8.6444C22.5017 3.87688 26.3524 0 31.1199 0C35.0754 0 38.4284 2.67191 39.4238 6.33923C39.7905 7.38703 40.0001 8.56581 40.0001 9.92796Z" fill="white"/>
<path d="M17.4984 9.92796C17.4984 14.2764 16.7125 16.8435 14.1454 21.0085C11.4997 25.2521 6.31303 29.4172 2.54093 31.3556L1.33595 29.0242C4.58415 26.7191 6.67976 24.9116 8.98494 20.4846C9.63982 19.2272 10.0065 18.127 10.2161 17.1316C9.7184 17.2364 9.1683 17.2888 8.61821 17.2888C3.85069 17.2888 0 13.4119 0 8.6444C0 3.87688 3.85069 0 8.61821 0C12.5737 0 15.9267 2.67191 16.9221 6.33923C17.2888 7.38703 17.4984 8.56581 17.4984 9.92796Z" fill="white"/>
</svg>
