<svg width="250" height="47" viewBox="0 0 250 47" fill="none" xmlns="http://www.w3.org/2000/svg">
<path d="M39.3734 46.6716C39.0226 46.6729 38.6803 46.5636 38.3952 46.3591L24.9974 36.6459L11.5996 46.3591C11.3133 46.5667 10.9685 46.6779 10.6149 46.6766C10.2613 46.6753 9.91727 46.5616 9.63255 46.3519C9.34783 46.1422 9.13718 45.8474 9.03103 45.5101C8.92489 45.1728 8.92877 44.8105 9.0421 44.4756L14.2675 28.9984L0.724839 19.7113C0.431496 19.5104 0.210098 19.2209 0.092993 18.8852C-0.0241122 18.5494 -0.0307874 18.1851 0.073943 17.8453C0.178673 17.5055 0.38932 17.2081 0.675107 16.9965C0.960893 16.785 1.30684 16.6704 1.66241 16.6694H18.3698L23.4119 1.15271C23.5205 0.817713 23.7324 0.525724 24.0173 0.318635C24.3021 0.111546 24.6452 0 24.9974 0C25.3496 0 25.6927 0.111546 25.9775 0.318635C26.2624 0.525724 26.4743 0.817713 26.5829 1.15271L31.625 16.6747H48.3324C48.6884 16.6745 49.0351 16.7883 49.3218 16.9994C49.6084 17.2106 49.8199 17.508 49.9253 17.848C50.0307 18.1881 50.0244 18.5529 49.9074 18.8892C49.7904 19.2254 49.5689 19.5153 49.2752 19.7165L35.7273 28.9984L40.9496 44.4714C41.0342 44.7219 41.058 44.989 41.019 45.2505C40.98 45.512 40.8794 45.7605 40.7254 45.9755C40.5714 46.1904 40.3685 46.3657 40.1334 46.4867C39.8983 46.6077 39.6378 46.6711 39.3734 46.6716Z" fill="#FFFAF0"/>
<path d="M89.3734 46.6716C89.0226 46.6729 88.6803 46.5636 88.3952 46.3591L74.9974 36.6459L61.5996 46.3591C61.3133 46.5667 60.9685 46.6779 60.6149 46.6766C60.2613 46.6753 59.9173 46.5616 59.6326 46.3519C59.3478 46.1422 59.1372 45.8474 59.031 45.5101C58.9249 45.1728 58.9288 44.8105 59.0421 44.4756L64.2675 28.9984L50.7248 19.7113C50.4315 19.5104 50.2101 19.2209 50.093 18.8852C49.9759 18.5494 49.9692 18.1851 50.0739 17.8453C50.1787 17.5055 50.3893 17.2081 50.6751 16.9965C50.9609 16.785 51.3068 16.6704 51.6624 16.6694H68.3698L73.4119 1.15271C73.5205 0.817713 73.7324 0.525724 74.0173 0.318635C74.3021 0.111546 74.6452 0 74.9974 0C75.3496 0 75.6927 0.111546 75.9775 0.318635C76.2624 0.525724 76.4743 0.817713 76.5829 1.15271L81.625 16.6747H98.3324C98.6884 16.6745 99.0351 16.7883 99.3218 16.9994C99.6084 17.2106 99.8199 17.508 99.9253 17.848C100.031 18.1881 100.024 18.5529 99.9074 18.8892C99.7904 19.2254 99.5689 19.5153 99.2752 19.7165L85.7273 28.9984L90.9496 44.4714C91.0342 44.7219 91.058 44.989 91.019 45.2505C90.98 45.512 90.8794 45.7605 90.7254 45.9755C90.5714 46.1904 90.3685 46.3657 90.1334 46.4867C89.8983 46.6077 89.6378 46.6711 89.3734 46.6716Z" fill="#FFFAF0"/>
<path d="M139.373 46.6716C139.023 46.6729 138.68 46.5636 138.395 46.3591L124.997 36.6459L111.6 46.3591C111.313 46.5667 110.968 46.6779 110.615 46.6766C110.261 46.6753 109.917 46.5616 109.633 46.3519C109.348 46.1422 109.137 45.8474 109.031 45.5101C108.925 45.1728 108.929 44.8105 109.042 44.4756L114.267 28.9984L100.725 19.7113C100.431 19.5104 100.21 19.2209 100.093 18.8852C99.9759 18.5494 99.9692 18.1851 100.074 17.8453C100.179 17.5055 100.389 17.2081 100.675 16.9965C100.961 16.785 101.307 16.6704 101.662 16.6694H118.37L123.412 1.15271C123.52 0.817713 123.732 0.525724 124.017 0.318635C124.302 0.111546 124.645 0 124.997 0C125.35 0 125.693 0.111546 125.978 0.318635C126.262 0.525724 126.474 0.817713 126.583 1.15271L131.625 16.6747H148.332C148.688 16.6745 149.035 16.7883 149.322 16.9994C149.608 17.2106 149.82 17.508 149.925 17.848C150.031 18.1881 150.024 18.5529 149.907 18.8892C149.79 19.2254 149.569 19.5153 149.275 19.7165L135.727 28.9984L140.95 44.4714C141.034 44.7219 141.058 44.989 141.019 45.2505C140.98 45.512 140.879 45.7605 140.725 45.9755C140.571 46.1904 140.369 46.3657 140.133 46.4867C139.898 46.6077 139.638 46.6711 139.373 46.6716Z" fill="#FFFAF0"/>
<path d="M189.373 46.6716C189.023 46.6729 188.68 46.5636 188.395 46.3591L174.997 36.6459L161.6 46.3591C161.313 46.5667 160.968 46.6779 160.615 46.6766C160.261 46.6753 159.917 46.5616 159.633 46.3519C159.348 46.1422 159.137 45.8474 159.031 45.5101C158.925 45.1728 158.929 44.8105 159.042 44.4756L164.267 28.9984L150.725 19.7113C150.431 19.5104 150.21 19.2209 150.093 18.8852C149.976 18.5494 149.969 18.1851 150.074 17.8453C150.179 17.5055 150.389 17.2081 150.675 16.9965C150.961 16.785 151.307 16.6704 151.662 16.6694H168.37L173.412 1.15271C173.52 0.817713 173.732 0.525724 174.017 0.318635C174.302 0.111546 174.645 0 174.997 0C175.35 0 175.693 0.111546 175.978 0.318635C176.262 0.525724 176.474 0.817713 176.583 1.15271L181.625 16.6747H198.332C198.688 16.6745 199.035 16.7883 199.322 16.9994C199.608 17.2106 199.82 17.508 199.925 17.848C200.031 18.1881 200.024 18.5529 199.907 18.8892C199.79 19.2254 199.569 19.5153 199.275 19.7165L185.727 28.9984L190.95 44.4714C191.034 44.7219 191.058 44.989 191.019 45.2505C190.98 45.512 190.879 45.7605 190.725 45.9755C190.571 46.1904 190.369 46.3657 190.133 46.4867C189.898 46.6077 189.638 46.6711 189.373 46.6716Z" fill="#FFFAF0"/>
<path d="M239.373 46.6716C239.023 46.6729 238.68 46.5636 238.395 46.3591L224.997 36.6459L211.6 46.3591C211.313 46.5667 210.968 46.6779 210.615 46.6766C210.261 46.6753 209.917 46.5616 209.633 46.3519C209.348 46.1422 209.137 45.8474 209.031 45.5101C208.925 45.1728 208.929 44.8105 209.042 44.4756L214.267 28.9984L200.725 19.7113C200.431 19.5104 200.21 19.2209 200.093 18.8852C199.976 18.5494 199.969 18.1851 200.074 17.8453C200.179 17.5055 200.389 17.2081 200.675 16.9965C200.961 16.785 201.307 16.6704 201.662 16.6694H218.37L223.412 1.15271C223.52 0.817713 223.732 0.525724 224.017 0.318635C224.302 0.111546 224.645 0 224.997 0C225.35 0 225.693 0.111546 225.978 0.318635C226.262 0.525724 226.474 0.817713 226.583 1.15271L231.625 16.6747H248.332C248.688 16.6745 249.035 16.7883 249.322 16.9994C249.608 17.2106 249.82 17.508 249.925 17.848C250.031 18.1881 250.024 18.5529 249.907 18.8892C249.79 19.2254 249.569 19.5153 249.275 19.7165L235.727 28.9984L240.95 44.4714C241.034 44.7219 241.058 44.989 241.019 45.2505C240.98 45.512 240.879 45.7605 240.725 45.9755C240.571 46.1904 240.369 46.3657 240.133 46.4867C239.898 46.6077 239.638 46.6711 239.373 46.6716Z" fill="#FFFAF0"/>
</svg>
