<svg width="8" height="8" viewBox="0 0 8 8" fill="none" xmlns="http://www.w3.org/2000/svg">
<g clip-path="url(#clip0_255_367)">
<path d="M2.30541 0.948568V0.339844C2.30557 0.295374 2.31594 0.25137 2.33595 0.210364C2.35595 0.169358 2.38518 0.13216 2.42197 0.100911C2.45835 0.0691053 2.50169 0.0438122 2.54949 0.0264922C2.5973 0.00917217 2.64862 0.000168191 2.70049 0L5.29803 0C5.40227 0.000382061 5.50211 0.0361856 5.5758 0.0996094C5.64953 0.162994 5.69115 0.248875 5.6916 0.338542V0.947266H7.74117C7.77476 0.947094 7.80805 0.952646 7.83913 0.963603C7.87021 0.97456 7.89846 0.990704 7.92224 1.0111C7.94603 1.0315 7.96488 1.05575 7.97771 1.08245C7.99054 1.10915 7.99709 1.13778 7.99699 1.16667V1.92578C7.99739 1.95468 7.99117 1.98336 7.97868 2.01019C7.96619 2.03702 7.94768 2.06147 7.92421 2.08215C7.90073 2.10282 7.87276 2.11932 7.84187 2.13069C7.81098 2.14207 7.77779 2.1481 7.7442 2.14844H7.45584L6.82764 7.82682C6.82189 7.87449 6.79596 7.91868 6.75479 7.95097C6.71362 7.98327 6.66008 8.00141 6.60437 8.00195H1.39491C1.33534 8.00196 1.27815 7.98183 1.23568 7.9459C1.1932 7.90998 1.16884 7.86113 1.16785 7.8099L0.5442 2.14844H0.255079C0.221292 2.14835 0.187859 2.14251 0.156711 2.13125C0.125562 2.11999 0.097315 2.10354 0.0736004 2.08284C0.0498858 2.06214 0.0311735 2.0376 0.018544 2.01064C0.00591448 1.98368 -0.000382061 1.95484 1.79285e-05 1.92578V1.16797C-8.19922e-05 1.13913 0.00644716 1.11056 0.0192298 1.08391C0.0320125 1.05725 0.0507963 1.03303 0.0745009 1.01264C0.0982055 0.992247 0.126363 0.976089 0.157354 0.965094C0.188344 0.954098 0.221556 0.948482 0.255079 0.948568H2.30541ZM5.05054 0.948568V0.554036H2.95177V0.948568H5.05054ZM3.74496 3.20638C3.74496 3.14767 3.77207 3.09137 3.82033 3.04986C3.86859 3.00835 3.93404 2.98503 4.00229 2.98503C4.07054 2.98503 4.13599 3.00835 4.18425 3.04986C4.23251 3.09137 4.25962 3.14767 4.25962 3.20638V6.57943C4.25962 6.6085 4.25296 6.63728 4.24003 6.66414C4.2271 6.69099 4.20815 6.71539 4.18425 6.73595C4.16035 6.7565 4.13199 6.77281 4.10077 6.78393C4.06954 6.79506 4.03608 6.80078 4.00229 6.80078C3.9685 6.80078 3.93503 6.79506 3.90381 6.78393C3.87259 6.77281 3.84422 6.7565 3.82033 6.73595C3.79643 6.71539 3.77748 6.69099 3.76454 6.66414C3.75161 6.63728 3.74496 6.6085 3.74496 6.57943V3.20638ZM5.267 3.1901C5.26757 3.16019 5.27519 3.13069 5.28939 3.10339C5.30358 3.07608 5.32407 3.05153 5.3496 3.03122C5.37514 3.01091 5.40519 2.99527 5.43795 2.98523C5.47071 2.97519 5.5055 2.97097 5.54021 2.97282C5.57492 2.97467 5.60883 2.98255 5.6399 2.99599C5.67097 3.00943 5.69855 3.02815 5.72098 3.05101C5.7434 3.07387 5.76021 3.10041 5.77038 3.12902C5.78055 3.15762 5.78387 3.18771 5.78015 3.21745L5.52509 6.5931C5.51803 6.64982 5.48578 6.70201 5.43508 6.73878C5.38437 6.77555 5.31912 6.79406 5.25293 6.79045C5.18674 6.78684 5.12473 6.76138 5.07983 6.7194C5.03493 6.67742 5.01061 6.62214 5.01194 6.5651L5.267 3.1901ZM2.21989 3.21745C2.2178 3.18851 2.22236 3.1595 2.2333 3.13207C2.24425 3.10465 2.26137 3.07935 2.28368 3.05761C2.306 3.03588 2.33307 3.01814 2.36336 3.00541C2.39364 2.99267 2.42654 2.98519 2.46019 2.9834C2.49383 2.9816 2.52756 2.98553 2.55944 2.99494C2.59132 3.00436 2.62074 3.01908 2.646 3.03828C2.67127 3.05747 2.69189 3.08076 2.70669 3.10681C2.7215 3.13286 2.73019 3.16116 2.73228 3.1901L2.99037 6.5625C2.99468 6.62095 2.97183 6.67848 2.92684 6.72243C2.88184 6.76638 2.81839 6.79316 2.75044 6.79688C2.6825 6.80059 2.61562 6.78093 2.56452 6.74223C2.51342 6.70352 2.48229 6.64894 2.47797 6.5905L2.21989 3.22005V3.21745ZM7.00172 2.17318H0.998315L1.59926 7.61263H6.40002L7.00551 2.17318H7.00172Z" fill="#C13434"/>
</g>
<defs>
<clipPath id="clip0_255_367">
<rect width="8" height="8" fill="white"/>
</clipPath>
</defs>
</svg>
